<svg width="442" height="64" viewBox="0 0 442 64" fill="none" xmlns="http://www.w3.org/2000/svg">
<path d="M29.264 2.11995L18.536 1.03995C18.608 5.57595 18.032 10.832 17.024 16.304C13.352 16.592 9.968 16.808 7.736 16.88C5.072 16.952 2.624 17.096 0.0319977 16.88L0.895998 26.672C3.056 26.312 6.872 25.808 8.888 25.448C10.256 25.304 12.488 25.016 15.08 24.728C12.488 34.592 7.52 49.136 0.535998 58.568L9.896 62.312C16.52 51.728 21.848 34.664 24.584 23.72C26.6 23.576 28.4 23.432 29.552 23.432C34.088 23.432 36.536 24.224 36.536 29.984C36.536 37.112 35.6 45.824 33.656 49.928C32.504 52.304 30.632 53.024 28.256 53.024C26.312 53.024 22.208 52.304 19.4 51.512L20.984 61.016C23.432 61.52 26.816 62.024 29.624 62.024C35.024 62.024 39.056 60.44 41.432 55.4C44.528 49.136 45.536 37.472 45.536 28.976C45.536 18.608 40.136 15.224 32.504 15.224C30.992 15.224 28.832 15.368 26.456 15.512C26.96 12.92 27.464 10.256 27.968 8.09595C28.328 6.29595 28.832 3.99195 29.264 2.11995ZM54.032 8.88795L45.464 12.56C50.576 18.896 55.688 31.928 57.56 39.92L66.704 35.672C64.544 28.832 58.496 15.08 54.032 8.88795ZM100.688 19.112L106.448 24.368C109.4 22.352 114.944 17.888 116.888 16.304L114.728 10.688C109.832 7.66395 102.128 4.35195 96.152 2.11995L90.824 8.74395C96.224 10.76 102.056 13.712 105.224 15.8C104.216 16.592 102.416 17.96 100.688 19.112ZM88.448 52.304L89.744 61.808C93.272 62.456 97.448 62.888 101.408 62.888C108.896 62.888 115.736 60.008 115.736 50.36C115.736 43.736 111.488 37.256 103.784 29.552C101.912 27.608 100.04 25.808 97.952 23.72L90.896 29.552C93.272 31.352 95.72 33.512 97.52 35.24C100.76 38.48 105.728 44.96 105.728 49.352C105.728 52.736 103.208 54.032 99.536 54.032C96.08 54.032 92.336 53.456 88.448 52.304ZM128.336 57.848L137.048 53.168C134.888 46.472 129.272 35.528 124.736 29.984L116.96 34.16C121.784 40.136 126.536 50.648 128.336 57.848ZM92.768 44.168L87.368 37.184C83.048 41.792 75.2 47.912 69.008 51.296L74.48 59C82.184 54.32 88.736 48.488 92.768 44.168ZM124.16 10.04L118.472 12.344C120.416 15.152 122.648 19.472 124.16 22.424L129.92 19.904C128.552 17.24 126.032 12.704 124.16 10.04ZM132.728 6.79995L127.04 9.10395C128.984 11.84 131.36 16.016 132.8 19.04L138.56 16.592C137.264 14.072 134.6 9.46395 132.728 6.79995ZM143.888 19.544L147.992 29.624C155.48 26.384 172.544 19.184 183.128 19.184C191.768 19.184 196.448 24.368 196.448 31.136C196.448 43.664 181.184 49.28 161.672 49.784L165.848 59.36C191.192 58.064 206.744 47.624 206.744 31.28C206.744 17.96 196.52 10.472 183.488 10.472C172.976 10.472 158.288 15.656 152.744 17.384C150.152 18.104 146.552 19.112 143.888 19.544ZM240.8 0.751953H230.72C231.296 2.83995 231.44 5.28795 231.44 9.82395C231.44 9.96795 231.44 10.184 231.44 10.4C230.72 10.4 230 10.4 229.28 10.4C225.896 10.4 221.648 10.04 217.688 9.46395L218.192 17.888C222.944 18.32 226.832 18.464 229.928 18.464C230.432 18.464 230.936 18.464 231.44 18.464C231.44 20.12 231.44 21.776 231.44 23.36H231.152C223.304 23.36 217.832 29.768 217.832 38.264C217.832 47.48 223.16 51.224 228.416 51.224C228.848 51.224 229.208 51.224 229.568 51.152C229.568 51.656 229.568 52.16 229.568 52.664C229.568 57.704 230.288 63.032 247.064 63.032C251.96 63.032 259.448 62.528 262.688 61.448C271.04 58.928 272.984 54.896 273.344 48.344C273.56 45.392 273.488 43.664 273.488 39.92L263.48 36.896C263.984 40.28 264.056 42.944 264.056 45.824C264.056 49.496 262.472 51.944 258.728 53.024C255.992 53.888 251.312 54.32 247.712 54.32C239.216 54.32 238.424 52.736 238.424 49.64C238.424 48.776 238.424 47.768 238.424 46.76C241.016 43.592 242.168 39.128 242.168 34.592C242.168 31.712 241.448 29.192 240.08 27.32V17.888C244.184 17.528 248.72 16.88 252.968 15.872V7.23195C248.648 8.45595 244.256 9.24795 240.08 9.75195C240.08 5.50395 240.368 2.83995 240.8 0.751953ZM264.992 7.37595L258.944 13.352C263.048 16.376 269.888 23 273.776 27.752L280.256 21.128C277.016 17.24 269.456 10.184 264.992 7.37595ZM229.352 42.584C227.264 42.584 225.392 40.784 225.392 37.616C225.392 33.368 227.696 30.56 230.576 30.56C232.592 30.56 233.96 32.216 233.96 35.024C233.96 39.056 232.664 42.584 229.352 42.584ZM288.43 54.0078C288.43 52.3906 288.969 51.0781 290.047 50.0703C291.148 49.0625 292.52 48.5586 294.16 48.5586C295.824 48.5586 297.195 49.0625 298.273 50.0703C299.375 51.0781 299.926 52.3906 299.926 54.0078C299.926 55.6016 299.387 56.9023 298.309 57.9102C297.23 58.8945 295.848 59.3867 294.16 59.3867C292.496 59.3867 291.125 58.8945 290.047 57.9102C288.969 56.9023 288.43 55.6016 288.43 54.0078ZM324.676 51.5117C326.551 51.5117 328.074 50.9961 329.246 49.9648C330.418 48.9336 331.027 47.5625 331.074 45.8516H340.602C340.578 48.4297 339.875 50.7969 338.492 52.9531C337.109 55.0859 335.211 56.75 332.797 57.9453C330.406 59.1172 327.758 59.7031 324.852 59.7031C319.414 59.7031 315.125 57.9805 311.984 54.5352C308.844 51.0664 307.273 46.2852 307.273 40.1914V39.5234C307.273 33.6641 308.832 28.9883 311.949 25.4961C315.066 22.0039 319.344 20.2578 324.781 20.2578C329.539 20.2578 333.348 21.6172 336.207 24.3359C339.09 27.0312 340.555 30.6289 340.602 35.1289H331.074C331.027 33.1602 330.418 31.5664 329.246 30.3477C328.074 29.1055 326.527 28.4844 324.605 28.4844C322.238 28.4844 320.445 29.3516 319.227 31.0859C318.031 32.7969 317.434 35.5859 317.434 39.4531V40.5078C317.434 44.4219 318.031 47.2344 319.227 48.9453C320.422 50.6562 322.238 51.5117 324.676 51.5117ZM344.82 39.6289C344.82 35.8555 345.547 32.4922 347 29.5391C348.453 26.5859 350.539 24.3008 353.258 22.6836C356 21.0664 359.176 20.2578 362.785 20.2578C367.918 20.2578 372.102 21.8281 375.336 24.9688C378.594 28.1094 380.41 32.375 380.785 37.7656L380.855 40.3672C380.855 46.2031 379.227 50.8906 375.969 54.4297C372.711 57.9453 368.34 59.7031 362.855 59.7031C357.371 59.7031 352.988 57.9453 349.707 54.4297C346.449 50.9141 344.82 46.1328 344.82 40.0859V39.6289ZM354.98 40.3672C354.98 43.9766 355.66 46.7422 357.02 48.6641C358.379 50.5625 360.324 51.5117 362.855 51.5117C365.316 51.5117 367.238 50.5742 368.621 48.6992C370.004 46.8008 370.695 43.7773 370.695 39.6289C370.695 36.0898 370.004 33.3477 368.621 31.4023C367.238 29.457 365.293 28.4844 362.785 28.4844C360.301 28.4844 358.379 29.457 357.02 31.4023C355.66 33.3242 354.98 36.3125 354.98 40.3672ZM396.641 20.9609L396.957 25.2148C399.652 21.9102 403.297 20.2578 407.891 20.2578C412.789 20.2578 416.152 22.1914 417.98 26.0586C420.652 22.1914 424.461 20.2578 429.406 20.2578C433.531 20.2578 436.602 21.4648 438.617 23.8789C440.633 26.2695 441.641 29.8789 441.641 34.707V59H431.445V34.7422C431.445 32.5859 431.023 31.0156 430.18 30.0312C429.336 29.0234 427.848 28.5195 425.715 28.5195C422.668 28.5195 420.559 29.9727 419.387 32.8789L419.422 59H409.262V34.7773C409.262 32.5742 408.828 30.9805 407.961 29.9961C407.094 29.0117 405.617 28.5195 403.531 28.5195C400.648 28.5195 398.562 29.7148 397.273 32.1055V59H387.113V20.9609H396.641Z" fill="white"/>
</svg>
